<?xml version="1.0" encoding="UTF-8" standalone="no"?><!DOCTYPE svg PUBLIC "-//W3C//DTD SVG 1.1//EN" "http://www.w3.org/Graphics/SVG/1.1/DTD/svg11.dtd"><svg width="100%" height="100%" viewBox="0 0 627 654" version="1.1" xmlns="http://www.w3.org/2000/svg" xmlns:xlink="http://www.w3.org/1999/xlink" xml:space="preserve" xmlns:serif="http://www.serif.com/" style="fill-rule:evenodd;clip-rule:evenodd;stroke-linejoin:round;stroke-miterlimit:2;"><path d="M33.98,519.557c-0,6.056 -6.41,10.966 -14.31,10.966l-5.36,0c-7.9,0 -14.31,-4.91 -14.31,-10.966l-0,-188.618c-0,-6.056 6.41,-10.966 14.31,-10.966l5.36,0c7.9,0 14.31,4.91 14.31,10.966l-0,188.618Z" style="fill:#bcbcbc;fill-rule:nonzero;"/><path d="M626.47,519.557c-0,6.056 -6.41,10.966 -14.31,10.966l-5.36,0c-7.9,0 -14.31,-4.91 -14.31,-10.966l-0,-188.618c-0,-6.056 6.41,-10.966 14.31,-10.966l5.36,0c7.9,0 14.31,4.91 14.31,10.966l-0,188.618Z" style="fill:#bcbcbc;fill-rule:nonzero;"/><path d="M116.57,17.973c-0,9.926 -8.05,17.973 -17.98,17.973c-9.92,0 -17.97,-8.047 -17.97,-17.973c-0,-9.926 8.05,-17.973 17.97,-17.973c9.93,0 17.98,8.047 17.98,17.973Z" style="fill:#bcbcbc;fill-rule:nonzero;"/><path d="M108.95,160.528l-20.72,0l5.03,-142.555l9.75,0l5.94,142.555Z" style="fill:#bcbcbc;fill-rule:nonzero;"/><path d="M135.6,240.029c-0,6.056 -5.52,10.966 -12.34,10.966l-49.34,-0c-6.81,-0 -12.34,-4.91 -12.34,-10.966l-0,-96.511c-0,-6.056 5.53,-10.966 12.34,-10.966l49.34,0c6.82,0 12.34,4.91 12.34,10.966l-0,96.511Z" style="fill:#bcbcbc;fill-rule:nonzero;"/><path d="M545.85,17.973c-0,9.926 -8.04,17.973 -17.97,17.973c-9.93,0 -17.97,-8.047 -17.97,-17.973c-0,-9.926 8.04,-17.973 17.97,-17.973c9.93,0 17.97,8.047 17.97,17.973Z" style="fill:#bcbcbc;fill-rule:nonzero;"/><path d="M538.24,160.528l-20.72,0l5.03,-142.555l9.75,0l5.94,142.555Z" style="fill:#bcbcbc;fill-rule:nonzero;"/><path d="M564.89,240.029c-0,6.056 -5.52,10.966 -12.34,10.966l-49.34,-0c-6.81,-0 -12.34,-4.91 -12.34,-10.966l-0,-96.511c-0,-6.056 5.53,-10.966 12.34,-10.966l49.34,0c6.82,0 12.34,4.91 12.34,10.966l-0,96.511Z" style="fill:#bcbcbc;fill-rule:nonzero;"/><path d="M607.32,318.08c-5.16,-103.033 -134.84,-185.528 -294.08,-185.528c-159.24,0 -288.92,82.495 -294.09,185.528c-0.11,1.021 -0.18,2.05 -0.18,3.092l-0,295.359c-0,20.39 21.38,36.92 47.75,36.92l493.03,0c26.37,0 47.75,-16.53 47.75,-36.92l0,-295.359c0,-1.042 -0.07,-2.071 -0.18,-3.092Z" style="fill:#d1d1d1;fill-rule:nonzero;"/><path d="M559.75,628.668l-493.03,-0c-26.37,-0 -47.75,-10.585 -47.75,-23.643l-0,24.783c-0,13.057 21.38,23.643 47.75,23.643l493.03,0c26.37,0 47.75,-10.586 47.75,-23.643l0,-24.783c0,13.058 -21.38,23.643 -47.75,23.643Z" style="fill:#bcbcbc;fill-rule:nonzero;"/><path d="M533.55,541.047l0,-158.86c0,-0.869 -0.05,-1.727 -0.14,-2.577c-3.86,-85.89 -100.95,-154.659 -220.17,-154.659c-119.23,0 -216.32,68.769 -220.18,154.659c-0.08,0.85 -0.14,1.708 -0.14,2.577l-0,158.86l440.63,-0Z" style="fill:#bcbcbc;fill-rule:nonzero;"/><path d="M533.55,541.047l0,-148.967c0,-0.815 -0.05,-1.619 -0.14,-2.417c-3.86,-80.541 -100.95,-145.027 -220.17,-145.027c-119.23,-0 -216.32,64.486 -220.18,145.027c-0.08,0.798 -0.14,1.602 -0.14,2.417l-0,148.967l440.63,-0Z" style="fill:#3d4756;fill-rule:nonzero;"/><path d="M533.42,389.663c-3.87,-80.541 -100.96,-145.027 -220.18,-145.027c-119.23,-0 -216.32,64.486 -220.18,145.027c-0.08,0.798 -0.14,1.602 -0.14,2.417l-0,32.897c-0,-0.815 0.06,-1.619 0.14,-2.417c3.86,-80.541 100.95,-145.027 220.18,-145.027c119.22,0 216.31,64.486 220.18,145.027c0.08,0.798 0.13,1.602 0.13,2.417l0,-32.897c0,-0.815 -0.05,-1.619 -0.13,-2.417Z" style="fill:#2d353f;fill-rule:nonzero;"/><g><path d="M239.14,396.098c-3,0 -5.45,-2.413 -5.48,-5.42c-0.01,-0.037 -0.2,-6.746 -4.24,-13.17c-5.2,-8.284 -14.42,-12.482 -27.39,-12.482l-0.26,0c-27.99,0.121 -31.84,23.578 -31.99,24.576c-0.45,2.995 -3.25,5.057 -6.24,4.606c-3,-0.45 -5.06,-3.243 -4.61,-6.238c1.76,-11.672 12.96,-33.782 42.79,-33.91c0.11,-0.001 0.21,-0.001 0.32,-0.001c41.68,0 42.579,36.126 42.579,36.492c0.041,3.028 -2.389,5.511 -5.419,5.546c-0.02,0.001 -0.04,0.001 -0.06,0.001Z" style="fill:#4c79ff;fill-rule:nonzero;"/><path d="M462.12,396.098c-3,0 -5.45,-2.413 -5.48,-5.42c-0,-0.037 -0.2,-6.746 -4.24,-13.17c-5.2,-8.284 -14.42,-12.482 -27.39,-12.482l-0.26,0c-27.99,0.121 -31.84,23.578 -31.99,24.576c-0.45,2.995 -3.25,5.057 -6.24,4.606c-3,-0.45 -5.06,-3.243 -4.61,-6.238c1.76,-11.672 12.96,-33.782 42.79,-33.91c0.11,-0.001 0.21,-0.001 0.32,-0.001c41.68,0 42.58,36.126 42.58,36.492c0.04,3.028 -2.39,5.511 -5.42,5.546c-0.02,0.001 -0.04,0.001 -0.06,0.001Z" style="fill:#4c79ff;fill-rule:nonzero;"/><path d="M313.24,508.502c46.68,0 84.53,-28.436 84.53,-63.513l-169.07,0c-0,35.077 37.85,63.513 84.54,63.513Z" style="fill:#4c79ff;fill-rule:nonzero;"/></g></svg>