<?xml version="1.0" encoding="UTF-8" standalone="no"?><!DOCTYPE svg PUBLIC "-//W3C//DTD SVG 1.1//EN" "http://www.w3.org/Graphics/SVG/1.1/DTD/svg11.dtd"><svg width="100%" height="100%" viewBox="0 0 627 654" version="1.1" xmlns="http://www.w3.org/2000/svg" xmlns:xlink="http://www.w3.org/1999/xlink" xml:space="preserve" xmlns:serif="http://www.serif.com/" style="fill-rule:evenodd;clip-rule:evenodd;stroke-linejoin:round;stroke-miterlimit:2;"><g><path d="M33.975,519.557c-0,6.056 -6.405,10.966 -14.306,10.966l-5.363,0c-7.901,0 -14.306,-4.91 -14.306,-10.966l0,-188.618c0,-6.056 6.405,-10.966 14.306,-10.966l5.363,0c7.901,0 14.306,4.91 14.306,10.966l-0,188.618Z" style="fill:#bcbcbc;fill-rule:nonzero;"/><path d="M626.465,519.557c0,6.056 -6.405,10.966 -14.306,10.966l-5.363,0c-7.901,0 -14.306,-4.91 -14.306,-10.966l-0,-188.618c-0,-6.056 6.405,-10.966 14.306,-10.966l5.363,0c7.901,0 14.306,4.91 14.306,10.966l0,188.618Z" style="fill:#bcbcbc;fill-rule:nonzero;"/><path d="M116.561,17.973c0,9.926 -8.047,17.973 -17.973,17.973c-9.926,0 -17.972,-8.047 -17.972,-17.973c-0,-9.926 8.046,-17.973 17.972,-17.973c9.926,0 17.973,8.047 17.973,17.973Z" style="fill:#bcbcbc;fill-rule:nonzero;"/><path d="M108.951,160.528l-20.726,0l5.033,-142.555l9.748,0l5.945,142.555Z" style="fill:#bcbcbc;fill-rule:nonzero;"/><path d="M135.597,240.029c-0,6.056 -5.523,10.966 -12.336,10.966l-49.346,-0c-6.813,-0 -12.336,-4.91 -12.336,-10.966l-0,-96.511c-0,-6.056 5.523,-10.966 12.336,-10.966l49.346,0c6.813,0 12.336,4.91 12.336,10.966l-0,96.511Z" style="fill:#bcbcbc;fill-rule:nonzero;"/><path d="M545.849,17.973c-0,9.926 -8.046,17.973 -17.972,17.973c-9.926,0 -17.973,-8.047 -17.973,-17.973c-0,-9.926 8.047,-17.973 17.973,-17.973c9.926,0 17.972,8.047 17.972,17.973Z" style="fill:#bcbcbc;fill-rule:nonzero;"/><path d="M538.24,160.528l-20.726,0l5.033,-142.555l9.748,0l5.945,142.555Z" style="fill:#bcbcbc;fill-rule:nonzero;"/><path d="M564.886,240.029c-0,6.056 -5.523,10.966 -12.337,10.966l-49.345,-0c-6.813,-0 -12.337,-4.91 -12.337,-10.966l0,-96.511c0,-6.056 5.524,-10.966 12.337,-10.966l49.345,0c6.814,0 12.337,4.91 12.337,10.966l-0,96.511Z" style="fill:#bcbcbc;fill-rule:nonzero;"/><path d="M607.315,318.08c-5.164,-103.033 -134.843,-185.528 -294.083,-185.528c-159.24,0 -288.918,82.495 -294.082,185.528c-0.11,1.021 -0.179,2.05 -0.179,3.092l-0,295.359c-0,20.39 21.375,36.92 47.743,36.92l493.037,0c26.368,0 47.743,-16.53 47.743,-36.92l0,-295.359c0,-1.042 -0.069,-2.071 -0.179,-3.092Z" style="fill:#d1d1d1;fill-rule:nonzero;"/><path d="M559.751,628.668l-493.037,-0c-26.368,-0 -47.743,-10.585 -47.743,-23.643l-0,24.783c-0,13.057 21.375,23.643 47.743,23.643l493.037,0c26.368,0 47.743,-10.586 47.743,-23.643l0,-24.783c0,13.058 -21.375,23.643 -47.743,23.643Z" style="fill:#bcbcbc;fill-rule:nonzero;"/><path d="M533.546,541.047l0,-158.86c0,-0.869 -0.053,-1.727 -0.135,-2.577c-3.866,-85.89 -100.956,-154.659 -220.179,-154.659c-119.222,0 -216.312,68.769 -220.178,154.659c-0.082,0.85 -0.135,1.708 -0.135,2.577l0,158.86l440.627,-0Z" style="fill:#bcbcbc;fill-rule:nonzero;"/><path d="M533.546,541.047l0,-148.967c0,-0.815 -0.053,-1.619 -0.135,-2.417c-3.866,-80.541 -100.956,-145.027 -220.179,-145.027c-119.222,-0 -216.312,64.486 -220.178,145.027c-0.082,0.798 -0.135,1.602 -0.135,2.417l0,148.967l440.627,-0Z" style="fill:#3d4756;fill-rule:nonzero;"/><path d="M533.411,389.663c-3.866,-80.541 -100.956,-145.027 -220.178,-145.027c-119.223,-0 -216.313,64.486 -220.179,145.027c-0.082,0.798 -0.135,1.602 -0.135,2.417l0,32.897c0,-0.815 0.053,-1.619 0.135,-2.417c3.866,-80.541 100.956,-145.027 220.179,-145.027c119.222,0 216.312,64.486 220.178,145.027c0.082,0.798 0.135,1.602 0.135,2.417l0,-32.897c0,-0.815 -0.053,-1.619 -0.135,-2.417Z" style="fill:#2d353f;fill-rule:nonzero;"/><g><path d="M206.011,371.595c-0,11.734 -9.512,21.247 -21.247,21.247c-11.733,0 -21.246,-9.513 -21.246,-21.247c0,-11.734 9.513,-21.246 21.246,-21.246c11.735,-0 21.247,9.512 21.247,21.246Z" style="fill:#4c79ff;fill-rule:nonzero;"/><path d="M476.042,371.595c-0,11.734 -9.512,21.247 -21.246,21.247c-11.734,0 -21.246,-9.513 -21.246,-21.247c-0,-11.734 9.512,-21.246 21.246,-21.246c11.734,-0 21.246,9.512 21.246,21.246Z" style="fill:#4c79ff;fill-rule:nonzero;"/><path d="M384.718,445.549c-2.757,-0.082 -5.083,2.104 -5.164,4.876c-0.011,0.305 -0.908,22.834 -15.234,34.653c-13.687,11.292 -38.504,15.072 -50.552,15.037c-11.255,0.492 -36.863,-3.745 -50.551,-15.037c-14.326,-11.819 -15.224,-34.348 -15.234,-34.653c-0.081,-2.772 -2.407,-4.958 -5.164,-4.876c-2.775,0.077 -4.962,2.39 -4.884,5.165c0.031,1.109 0.967,27.336 18.885,42.118c18.291,15.091 41.888,17.387 54.559,17.387c15.122,-0 41.047,-2.296 59.339,-17.387c17.918,-14.782 18.853,-41.009 18.884,-42.118c0.078,-2.775 -2.109,-5.088 -4.884,-5.165Z" style="fill:#4c79ff;fill-rule:nonzero;"/></g></g></svg>