<?xml version="1.0" encoding="UTF-8" standalone="no"?><!DOCTYPE svg PUBLIC "-//W3C//DTD SVG 1.1//EN" "http://www.w3.org/Graphics/SVG/1.1/DTD/svg11.dtd"><svg width="100%" height="100%" viewBox="0 0 627 654" version="1.1" xmlns="http://www.w3.org/2000/svg" xmlns:xlink="http://www.w3.org/1999/xlink" xml:space="preserve" xmlns:serif="http://www.serif.com/" style="fill-rule:evenodd;clip-rule:evenodd;stroke-linejoin:round;stroke-miterlimit:2;"><path d="M33.979,519.56c0,6.06 -6.409,10.96 -14.309,10.96l-5.36,-0c-7.9,-0 -14.31,-4.9 -14.31,-10.96l0,-188.62c0,-6.06 6.41,-10.97 14.31,-10.97l5.36,-0c7.9,-0 14.309,4.91 14.309,10.97l0,188.62Z" style="fill:#bcbcbc;fill-rule:nonzero;"/><path d="M626.47,519.56c-0,6.06 -6.41,10.96 -14.31,10.96l-5.36,-0c-7.9,-0 -14.31,-4.9 -14.31,-10.96l-0,-188.62c-0,-6.06 6.41,-10.97 14.31,-10.97l5.36,-0c7.9,-0 14.31,4.91 14.31,10.97l-0,188.62Z" style="fill:#bcbcbc;fill-rule:nonzero;"/><path d="M116.56,17.97c0,9.93 -8.04,17.98 -17.97,17.98c-9.93,-0 -17.97,-8.05 -17.97,-17.98c-0,-9.92 8.04,-17.97 17.97,-17.97c9.93,-0 17.97,8.05 17.97,17.97Z" style="fill:#bcbcbc;fill-rule:nonzero;"/><path d="M108.95,160.53l-20.72,-0l5.03,-142.56l9.75,-0l5.94,142.56Z" style="fill:#bcbcbc;fill-rule:nonzero;"/><path d="M135.6,240.03c-0,6.06 -5.52,10.97 -12.34,10.97l-49.34,0c-6.82,0 -12.34,-4.91 -12.34,-10.97l0,-96.51c0,-6.06 5.52,-10.97 12.34,-10.97l49.34,-0c6.82,-0 12.34,4.91 12.34,10.97l-0,96.51Z" style="fill:#bcbcbc;fill-rule:nonzero;"/><path d="M545.85,17.97c-0,9.93 -8.05,17.98 -17.97,17.98c-9.93,-0 -17.97,-8.05 -17.97,-17.98c0,-9.92 8.04,-17.97 17.97,-17.97c9.92,-0 17.97,8.05 17.97,17.97Z" style="fill:#bcbcbc;fill-rule:nonzero;"/><path d="M538.24,160.53l-20.72,-0l5.03,-142.56l9.75,-0l5.94,142.56Z" style="fill:#bcbcbc;fill-rule:nonzero;"/><path d="M564.89,240.03c0,6.06 -5.53,10.97 -12.34,10.97l-49.34,0c-6.82,0 -12.34,-4.91 -12.34,-10.97l-0,-96.51c-0,-6.06 5.52,-10.97 12.34,-10.97l49.34,-0c6.81,-0 12.34,4.91 12.34,10.97l0,96.51Z" style="fill:#bcbcbc;fill-rule:nonzero;"/><path d="M607.32,318.08c-5.17,-103.03 -134.85,-185.53 -294.09,-185.53c-159.24,-0 -288.92,82.5 -294.08,185.53c-0.11,1.02 -0.181,2.05 -0.181,3.09l-0,295.36c-0,20.39 21.381,36.92 47.751,36.92l493.03,-0c26.37,-0 47.75,-16.53 47.75,-36.92l0,-295.36c0,-1.04 -0.07,-2.07 -0.18,-3.09Z" style="fill:#d1d1d1;fill-rule:nonzero;"/><path d="M559.75,628.67l-493.03,-0c-26.37,-0 -47.751,-10.59 -47.751,-23.64l-0,24.78c-0,13.06 21.381,23.64 47.751,23.64l493.03,-0c26.37,-0 47.75,-10.58 47.75,-23.64l0,-24.78c0,13.05 -21.38,23.64 -47.75,23.64Z" style="fill:#bcbcbc;fill-rule:nonzero;"/><path d="M533.55,541.05l0,-158.86c0,-0.87 -0.06,-1.73 -0.14,-2.58c-3.86,-85.89 -100.95,-154.66 -220.18,-154.66c-119.22,-0 -216.31,68.77 -220.18,154.66c-0.08,0.85 -0.13,1.71 -0.13,2.58l0,158.86l440.63,-0Z" style="fill:#bcbcbc;fill-rule:nonzero;"/><path d="M533.55,541.05l0,-148.97c0,-0.81 -0.06,-1.62 -0.14,-2.41c-3.86,-80.55 -100.95,-145.03 -220.18,-145.03c-119.22,-0 -216.31,64.48 -220.18,145.03c-0.08,0.79 -0.13,1.6 -0.13,2.41l0,148.97l440.63,-0Z" style="fill:#3d4756;fill-rule:nonzero;"/><path d="M533.41,389.67c-3.86,-80.55 -100.95,-145.03 -220.18,-145.03c-119.22,-0 -216.31,64.48 -220.18,145.03c-0.08,0.79 -0.13,1.6 -0.13,2.41l0,32.9c0,-0.82 0.05,-1.62 0.13,-2.42c3.87,-80.54 100.96,-145.03 220.18,-145.03c119.23,-0 216.32,64.49 220.18,145.03c0.08,0.8 0.14,1.6 0.14,2.42l0,-32.9c0,-0.81 -0.06,-1.62 -0.14,-2.41Z" style="fill:#2d353f;fill-rule:nonzero;"/><path d="M330.766,330.876c0,-9.678 -7.852,-17.531 -17.531,-17.531c-9.679,-0 -17.531,7.853 -17.531,17.531c-0,9.679 7.852,17.531 17.531,17.531c9.679,0 17.531,-7.852 17.531,-17.531Zm0,151.938c0,-9.679 -7.852,-17.532 -17.531,-17.532c-9.679,0 -17.531,7.853 -17.531,17.532c-0,9.678 7.852,17.531 17.531,17.531c9.679,-0 17.531,-7.853 17.531,-17.531Zm-93.5,-58.438c9.679,0 17.532,-7.852 17.532,-17.531c-0,-9.679 -7.853,-17.531 -17.532,-17.531c-9.678,-0 -17.531,7.852 -17.531,17.531c0,9.679 7.853,17.531 17.531,17.531Zm169.469,-17.531c0,-9.679 -7.852,-17.531 -17.531,-17.531c-9.679,-0 -17.531,7.852 -17.531,17.531c-0,9.679 7.852,17.531 17.531,17.531c9.679,0 17.531,-7.852 17.531,-17.531Zm-134.808,66.107c6.83,-6.829 6.83,-17.933 0,-24.799c-6.83,-6.866 -17.933,-6.83 -24.799,-0c-6.867,6.83 -6.83,17.933 -0,24.799c6.83,6.867 17.933,6.83 24.799,0Zm0,-107.452c6.83,-6.829 6.83,-17.933 0,-24.799c-6.83,-6.866 -17.969,-6.83 -24.799,0.037c-6.83,6.866 -6.83,17.933 -0,24.799c6.83,6.866 17.933,6.83 24.799,-0l0,-0.037Zm82.616,107.452c6.83,6.83 17.933,6.83 24.799,0c6.867,-6.829 6.83,-17.933 0,-24.799c-6.829,-6.866 -17.933,-6.83 -24.799,-0c-6.866,6.83 -6.83,17.933 0,24.799Z" style="fill:#4c79ff;fill-rule:nonzero;"/></svg>