<?xml version="1.0" encoding="UTF-8" standalone="no"?><!DOCTYPE svg PUBLIC "-//W3C//DTD SVG 1.1//EN" "http://www.w3.org/Graphics/SVG/1.1/DTD/svg11.dtd"><svg width="100%" height="100%" viewBox="0 0 627 654" version="1.1" xmlns="http://www.w3.org/2000/svg" xmlns:xlink="http://www.w3.org/1999/xlink" xml:space="preserve" xmlns:serif="http://www.serif.com/" style="fill-rule:evenodd;clip-rule:evenodd;stroke-linejoin:round;stroke-miterlimit:2;"><path d="M33.975,519.557c-0,6.056 -6.401,10.966 -14.31,10.966l-5.36,0c-7.9,0 -14.305,-4.91 -14.305,-10.966l0,-188.618c0,-6.056 6.405,-10.966 14.305,-10.966l5.36,0c7.909,0 14.31,4.91 14.31,10.966l-0,188.618Z" style="fill:#bcbcbc;fill-rule:nonzero;"/><path d="M626.465,519.557c-0,6.056 -6.4,10.966 -14.31,10.966l-5.36,0c-7.9,0 -14.31,-4.91 -14.31,-10.966l-0,-188.618c-0,-6.056 6.41,-10.966 14.31,-10.966l5.36,0c7.91,0 14.31,4.91 14.31,10.966l-0,188.618Z" style="fill:#bcbcbc;fill-rule:nonzero;"/><path d="M116.565,17.973c-0,9.926 -8.05,17.973 -17.98,17.973c-9.92,0 -17.97,-8.047 -17.97,-17.973c-0,-9.926 8.05,-17.973 17.97,-17.973c9.93,0 17.98,8.047 17.98,17.973Z" style="fill:#bcbcbc;fill-rule:nonzero;"/><path d="M108.955,160.528l-20.73,0l5.03,-142.555l9.75,0l5.95,142.555Z" style="fill:#bcbcbc;fill-rule:nonzero;"/><path d="M135.595,240.029c-0,6.056 -5.52,10.966 -12.33,10.966l-49.35,-0c-6.81,-0 -12.34,-4.91 -12.34,-10.966l-0,-96.511c-0,-6.056 5.53,-10.966 12.34,-10.966l49.35,0c6.81,0 12.33,4.91 12.33,10.966l-0,96.511Z" style="fill:#bcbcbc;fill-rule:nonzero;"/><path d="M545.845,17.973c-0,9.926 -8.04,17.973 -17.97,17.973c-9.92,0 -17.97,-8.047 -17.97,-17.973c0,-9.926 8.05,-17.973 17.97,-17.973c9.93,0 17.97,8.047 17.97,17.973Z" style="fill:#bcbcbc;fill-rule:nonzero;"/><path d="M538.235,160.528l-20.72,0l5.03,-142.555l9.75,0l5.94,142.555Z" style="fill:#bcbcbc;fill-rule:nonzero;"/><path d="M564.885,240.029c0,6.056 -5.52,10.966 -12.34,10.966l-49.34,-0c-6.81,-0 -12.34,-4.91 -12.34,-10.966l-0,-96.511c-0,-6.056 5.53,-10.966 12.34,-10.966l49.34,0c6.82,0 12.34,4.91 12.34,10.966l0,96.511Z" style="fill:#bcbcbc;fill-rule:nonzero;"/><path d="M607.315,318.08c-5.16,-103.033 -134.84,-185.528 -294.08,-185.528c-159.24,0 -288.92,82.495 -294.09,185.528c-0.1,1.021 -0.17,2.05 -0.17,3.092l-0,295.359c-0,20.39 21.37,36.92 47.74,36.92l493.04,0c26.36,0 47.74,-16.53 47.74,-36.92l-0,-295.359c-0,-1.042 -0.07,-2.071 -0.18,-3.092Z" style="fill:#d1d1d1;fill-rule:nonzero;"/><path d="M559.755,628.668l-493.04,-0c-26.37,-0 -47.74,-10.585 -47.74,-23.643l-0,24.783c-0,13.057 21.37,23.643 47.74,23.643l493.04,0c26.36,0 47.74,-10.586 47.74,-23.643l-0,-24.783c-0,13.058 -21.38,23.643 -47.74,23.643Z" style="fill:#bcbcbc;fill-rule:nonzero;"/><path d="M533.545,541.047l0,-158.86c0,-0.869 -0.05,-1.727 -0.13,-2.577c-3.87,-85.89 -100.96,-154.659 -220.18,-154.659c-119.23,0 -216.31,68.769 -220.18,154.659c-0.08,0.85 -0.14,1.708 -0.14,2.577l0,158.86l440.63,-0Z" style="fill:#bcbcbc;fill-rule:nonzero;"/><path d="M533.545,541.047l0,-148.967c0,-0.815 -0.05,-1.619 -0.13,-2.417c-3.87,-80.541 -100.96,-145.027 -220.18,-145.027c-119.23,-0 -216.31,64.486 -220.18,145.027c-0.08,0.798 -0.14,1.602 -0.14,2.417l0,148.967l440.63,-0Z" style="fill:#3d4756;fill-rule:nonzero;"/><path d="M533.415,389.663c-3.87,-80.541 -100.96,-145.027 -220.18,-145.027c-119.23,-0 -216.31,64.486 -220.18,145.027c-0.08,0.798 -0.14,1.602 -0.14,2.417l0,32.897c0,-0.815 0.06,-1.619 0.14,-2.417c3.87,-80.541 100.95,-145.027 220.18,-145.027c119.22,0 216.31,64.486 220.18,145.027c0.08,0.798 0.13,1.602 0.13,2.417l0,-32.897c0,-0.815 -0.05,-1.619 -0.13,-2.417Z" style="fill:#2d353f;fill-rule:nonzero;"/><g><path d="M384.715,516.969c-2.75,0.082 -5.08,-2.104 -5.16,-4.876c-0.01,-0.305 -0.91,-22.834 -15.23,-34.653c-13.69,-11.292 -38.51,-15.072 -50.56,-15.037c-11.25,-0.492 -36.86,3.745 -50.55,15.037c-14.32,11.819 -15.22,34.348 -15.23,34.653c-0.08,2.772 -2.41,4.958 -5.17,4.876c-2.77,-0.077 -4.96,-2.39 -4.88,-5.165c0.03,-1.109 0.97,-27.336 18.88,-42.118c18.3,-15.091 41.89,-17.387 54.56,-17.387c15.13,0 41.05,2.296 59.34,17.387c17.92,14.782 18.86,41.009 18.89,42.118c0.07,2.775 -2.11,5.088 -4.89,5.165Z" style="fill:#ff4a4a;fill-rule:nonzero;"/><path d="M214.975,381.773c3.03,3.033 3.03,7.951 -0,10.985c-3.04,3.034 -7.96,3.034 -10.99,0l-35.98,-35.979c-3.03,-3.034 -3.03,-7.952 0,-10.986c3.03,-3.033 7.95,-3.033 10.99,-0l35.98,35.98Z" style="fill:#ff4a4a;fill-rule:nonzero;"/><path d="M203.985,345.793c3.03,-3.033 7.95,-3.033 10.99,-0c3.03,3.034 3.03,7.952 -0,10.986l-35.98,35.979c-3.04,3.034 -7.96,3.034 -10.99,0c-3.03,-3.034 -3.03,-7.952 0,-10.985l35.98,-35.98Z" style="fill:#ff4a4a;fill-rule:nonzero;"/><path d="M465.365,381.773c3.04,3.033 3.04,7.951 -0,10.985c-3.03,3.034 -7.95,3.034 -10.98,0l-35.98,-35.979c-3.04,-3.034 -3.04,-7.952 0,-10.986c3.03,-3.033 7.95,-3.033 10.98,-0l35.98,35.98Z" style="fill:#ff4a4a;fill-rule:nonzero;"/><path d="M454.385,345.793c3.03,-3.033 7.95,-3.033 10.98,-0c3.04,3.034 3.04,7.952 -0,10.986l-35.98,35.979c-3.03,3.034 -7.95,3.034 -10.98,0c-3.04,-3.034 -3.04,-7.952 0,-10.985l35.98,-35.98Z" style="fill:#ff4a4a;fill-rule:nonzero;"/></g></svg>