<svg xmlns="http://www.w3.org/2000/svg" width="59" height="59" fill="none" viewBox="0 0 59 59">
  <path fill="#B8C1CA" d="M52.187 48.316a29.468 29.468 0 0 0 5.78-26.575 29.469 29.469 0 0 0-6.782-12.25 29.522 29.522 0 0 0-38.65-4.13 29.483 29.483 0 0 0-9.22 10.54A29.456 29.456 0 0 0 0 29.5a29.27 29.27 0 0 0 6.855 18.815l-.042.036c.148.177.316.329.468.504.19.217.394.421.59.632.591.64 1.198 1.256 1.835 1.833.194.177.394.341.59.51a29.35 29.35 0 0 0 2.088 1.647c.093.064.177.146.27.211v-.025a29.33 29.33 0 0 0 33.738 0v.025c.093-.065.175-.147.27-.21a30.468 30.468 0 0 0 2.088-1.648c.196-.169.396-.335.59-.51a29.504 29.504 0 0 0 1.835-1.833c.196-.21.398-.415.59-.632.15-.175.32-.327.468-.506l-.046-.034Zm-22.666-35.67a9.495 9.495 0 0 1 8.767 5.853 9.474 9.474 0 0 1-2.057 10.333 9.492 9.492 0 0 1-14.6-1.437 9.476 9.476 0 0 1 1.18-11.972 9.493 9.493 0 0 1 6.71-2.777Zm-16.854 35.67a10.522 10.522 0 0 1 3.132-7.35 10.539 10.539 0 0 1 7.396-3.037h12.652a10.539 10.539 0 0 1 7.396 3.036 10.522 10.522 0 0 1 3.133 7.351 25.189 25.189 0 0 1-33.71 0Z"/>
</svg>
