<svg xmlns="http://www.w3.org/2000/svg" width="392" height="132" fill="none" viewBox="0 0 392 132">
  <path fill="#2D3748" d="M131 131V1H1v130h130Z"/>
  <path fill="#2D3748" d="M131 131V1C59.203 1 1 59.203 1 131h130Z"/>
  <path stroke="#425466" d="M131 1v130H1M131 1H1v130M131 1C59.203 1 1 59.203 1 131"/>
  <path fill="#2B3445" d="M131 131V1C59.203 1 1 59.203 1 131h130Z"/>
  <path fill="#2B3445" d="M131 131V1C59.203 1 1 59.203 1 131h130Z"/>
  <path fill="#425466" d="M131 131h.5v.5h-.5v-.5Zm-.5 0V1h1v130h-1ZM1 130.5h130v1H1v-1Zm130-129C59.48 1.5 1.5 59.48 1.5 131h-1C.5 58.927 58.927.5 131 .5v1Zm0 0C59.48 1.5 1.5 59.48 1.5 131h-1C.5 58.927 58.927.5 131 .5v1Z"/>
  <path fill="#2D3748" d="M261 131V1H131v130h130Z"/>
  <path fill="#2D3748" d="M261 131V1c-71.797 0-130 58.203-130 130h130Z"/>
  <path stroke="#425466" d="M261 1v130H131M261 1H131v130M261 1c-71.797 0-130 58.203-130 130"/>
  <path fill="#303A4C" d="M131 1v130c71.797 0 130-58.203 130-130H131Z"/>
  <path fill="#303A4C" d="M131 1v130c71.797 0 130-58.203 130-130H131Z"/>
  <path stroke="#425466" d="M131 131V1h130M131 131c71.797 0 130-58.203 130-130M131 131c71.797 0 130-58.203 130-130"/>
  <path fill="#2D3748" d="M261 131V1h130v130H261Z"/>
  <path fill="#2D3748" d="M261 131V1c71.797 0 130 58.203 130 130H261Z"/>
  <path stroke="#425466" d="M261 1v130h130M261 1h130v130M261 1c71.797 0 130 58.203 130 130"/>
  <path fill="#4F5C6F" d="M391 1v130c-71.797 0-130-58.203-130-130h130Z"/>
  <path fill="#4F5C6F" d="M391 1v130c-71.797 0-130-58.203-130-130h130Z"/>
  <path stroke="#425466" d="M391 131V1H261m130 130c-71.797 0-130-58.203-130-130m130 130c-71.797 0-130-58.203-130-130"/>
</svg>
